<?xml version="1.0" encoding="UTF-8"?><svg id="a" xmlns="http://www.w3.org/2000/svg" viewBox="0 0 855.99 506.57"><defs><style>.b{fill:#fff;}.c{fill:red;}</style></defs><path class="b" d="M0,506.57V0H855.99V506.57H0Zm10.21-179.12c2.87-2.27,5.28-3.97,7.45-5.94,1.82-1.65,3.18-1.57,5.08-.01,8.2,6.72,16.56,13.23,24.76,19.95,1.75,1.43,2.88,1.68,4.75,.14,8.18-6.74,16.57-13.22,24.73-19.98,2.16-1.79,3.55-1.52,5.57,.13,8.19,6.73,16.54,13.25,24.75,19.97,1.62,1.33,2.66,1.33,4.28,0,8.2-6.71,16.56-13.24,24.75-19.97,2.01-1.65,3.4-1.92,5.57-.13,8.09,6.69,16.4,13.11,24.51,19.78,1.87,1.54,3.02,1.69,4.98,.07,8.17-6.75,16.55-13.25,24.75-19.96,1.9-1.56,3.19-1.54,5.08,0,8.2,6.72,16.56,13.23,24.76,19.95,1.75,1.44,2.88,1.66,4.75,.13,8.18-6.73,16.57-13.22,24.73-19.98,2.17-1.8,3.56-1.5,5.56,.15,8.19,6.73,16.55,13.25,24.75,19.97,1.63,1.34,2.67,1.31,4.28-.01,8.2-6.71,16.56-13.24,24.75-19.97,2.02-1.66,3.41-1.9,5.57-.11,8.17,6.76,16.54,13.26,24.74,19.97,1.68,1.37,2.77,1.48,4.52,.05,8.27-6.78,16.71-13.36,24.98-20.15,1.91-1.57,3.2-1.52,5.08,.02,8.2,6.71,16.56,13.23,24.76,19.95,1.76,1.44,2.89,1.64,4.75,.11,8.18-6.73,16.55-13.24,24.74-19.97,1.97-1.61,3.31-1.69,5.32-.04,8.26,6.8,16.7,13.38,24.98,20.15,1.64,1.34,2.68,1.29,4.28-.03,8.2-6.71,16.56-13.24,24.75-19.97,2.03-1.67,3.42-1.88,5.57-.1,8.17,6.75,16.54,13.26,24.74,19.97,1.69,1.38,2.78,1.46,4.52,.04,8.19-6.72,16.56-13.23,24.74-19.98,2.11-1.74,3.5-1.67,5.57,.04,8.18,6.74,16.55,13.24,24.74,19.98,1.79,1.47,2.88,1.22,4.52-.11,8.21-6.7,16.56-13.23,24.75-19.96,1.97-1.62,3.32-1.67,5.32-.02,8.19,6.73,16.56,13.24,24.75,19.96,1.83,1.5,2.96,1.42,4.75-.04,8.19-6.72,16.57-13.23,24.75-19.96,2.05-1.69,3.39-1.47,5.32,.11,8.2,6.72,16.55,13.25,24.75,19.96,1.7,1.39,2.79,1.44,4.52,.02,8.19-6.72,16.57-13.23,24.74-19.97,2.12-1.75,3.51-1.64,5.57,.05,8.18,6.74,16.56,13.24,24.74,19.98,1.8,1.48,2.89,1.2,4.52-.13,8.22-6.7,16.57-13.23,24.76-19.95,1.98-1.63,3.33-1.65,5.32,0,8.19,6.73,16.56,13.24,24.75,19.97,1.83,1.51,2.98,1.43,4.75-.06,4.92-4.15,9.96-8.16,15.09-12.06,1.6-1.22,2.2-2.47,2.18-4.45-.11-10.8-.1-21.61-.1-32.41,0-92.47,0-184.95,0-277.42,0-1.24,0-2.47,0-3.6H10.21V327.45Zm-.1,38.16c2.94-2.34,5.28-3.99,7.38-5.91,1.86-1.7,3.28-1.78,5.32-.1,8.18,6.74,16.56,13.24,24.75,19.96,1.79,1.47,2.93,1.52,4.75,.03,8.19-6.73,16.56-13.23,24.75-19.97,2.01-1.65,3.36-1.57,5.32,.04,8.19,6.73,16.56,13.23,24.75,19.97,1.86,1.53,2.99,1.33,4.75-.11,8.2-6.72,16.56-13.24,24.76-19.95,1.88-1.54,3.17-1.58,5.08-.02,8.2,6.72,16.58,13.21,24.75,19.96,1.95,1.61,3.11,1.49,4.98-.06,8.11-6.67,16.4-13.12,24.52-19.77,1.95-1.6,3.29-1.74,5.32-.07,8.18,6.74,16.56,13.24,24.75,19.96,1.8,1.48,2.94,1.5,4.75,0,8.19-6.73,16.56-13.23,24.75-19.97,2.02-1.66,3.37-1.54,5.32,.06,8.12,6.66,16.41,13.1,24.52,19.77,1.87,1.54,3.02,1.7,4.98,.07,8.17-6.75,16.55-13.25,24.75-19.96,1.9-1.55,3.18-1.55,5.08,0,8.2,6.72,16.56,13.23,24.76,19.95,1.75,1.43,2.88,1.67,4.75,.13,8.18-6.73,16.57-13.22,24.73-19.98,2.17-1.8,3.56-1.51,5.57,.14,8.19,6.73,16.55,13.25,24.75,19.97,1.63,1.33,2.67,1.31,4.28-.01,8.2-6.71,16.56-13.24,24.75-19.97,2.02-1.66,3.41-1.9,5.57-.12,8.17,6.76,16.54,13.26,24.74,19.97,1.68,1.37,2.77,1.49,4.52,.05,8.27-6.79,16.71-13.36,24.98-20.15,1.91-1.57,3.2-1.52,5.08,.02,8.2,6.71,16.56,13.23,24.76,19.95,1.76,1.44,2.89,1.64,4.75,.11,8.18-6.73,16.55-13.24,24.74-19.97,1.97-1.62,3.31-1.69,5.32-.04,8.19,6.73,16.56,13.24,24.75,19.96,1.82,1.5,2.96,1.44,4.75-.03,8.19-6.72,16.57-13.23,24.75-19.97,2.04-1.68,3.39-1.49,5.32,.1,8.2,6.72,16.55,13.25,24.75,19.96,1.69,1.38,2.79,1.45,4.52,.03,8.19-6.72,16.57-13.23,24.74-19.98,2.11-1.74,3.5-1.66,5.57,.04,8.18,6.74,16.55,13.24,24.74,19.98,1.79,1.48,2.89,1.21,4.52-.12,8.21-6.7,16.57-13.23,24.76-19.96,1.98-1.62,3.32-1.66,5.32-.02,8.19,6.73,16.56,13.24,24.75,19.97,1.83,1.5,2.97,1.41,4.75-.05,8.11-6.66,16.43-13.09,24.5-19.79,2.26-1.87,3.71-1.6,5.81,.13,8.18,6.73,16.53,13.27,24.75,19.96,1.51,1.23,2.53,1.26,4.05,0,5.35-4.41,10.83-8.67,16.22-13.02,.57-.46,1.29-1.19,1.3-1.81,.1-5.8,.06-11.6,.06-18.1-1.58,1.14-2.61,1.83-3.57,2.6-4.57,3.64-9.19,7.23-13.64,11.01-1.78,1.51-2.96,1.49-4.76,0-8.19-6.72-16.57-13.22-24.75-19.96-2.03-1.67-3.35-1.55-5.31,.06-8.11,6.66-16.41,13.11-24.52,19.77-1.86,1.53-3.04,1.68-5,.07-8.17-6.75-16.56-13.24-24.75-19.96-1.91-1.56-3.18-1.54-5.07,0-8.2,6.72-16.58,13.21-24.75,19.96-1.97,1.63-3.15,1.43-5-.09-8.12-6.66-16.41-13.1-24.52-19.77-1.97-1.62-3.29-1.71-5.31-.05-8.18,6.74-16.55,13.24-24.75,19.97-1.81,1.49-2.97,1.44-4.76-.03-8.12-6.66-16.43-13.08-24.51-19.79-2.25-1.86-3.68-1.65-5.79,.1-8.1,6.68-16.39,13.13-24.51,19.78-1.68,1.37-2.8,1.45-4.53,.03-8.28-6.78-16.72-13.35-24.99-20.14-1.93-1.58-3.2-1.49-5.07,.04-8.05,6.59-16.28,12.95-24.3,19.57-2.12,1.75-3.43,1.99-5.69,.1-8.06-6.73-16.39-13.12-24.52-19.77-1.81-1.48-3.01-1.51-4.83-.02-8.2,6.71-16.58,13.21-24.75,19.96-2.03,1.68-3.28,1.53-5.22-.06-8.03-6.61-16.28-12.95-24.28-19.6-2.27-1.88-3.69-1.6-5.79,.13-8.11,6.67-16.39,13.13-24.51,19.78-1.7,1.39-2.82,1.39-4.53,0-8.2-6.71-16.58-13.21-24.74-19.97-2.13-1.76-3.5-1.62-5.55,.07-8.1,6.67-16.4,13.12-24.51,19.78-1.78,1.46-2.94,1.56-4.76,.06-8.19-6.72-16.56-13.23-24.75-19.96-2-1.65-3.33-1.62-5.31,.01-8.19,6.73-16.56,13.24-24.75,19.97-1.84,1.51-2.99,1.36-4.76-.09-8.2-6.72-16.56-13.23-24.76-19.95-1.87-1.53-3.14-1.62-5.07-.05-8.27,6.79-16.71,13.37-24.98,20.15-1.72,1.41-2.85,1.34-4.53-.03-8.13-6.65-16.41-13.1-24.52-19.78-2.12-1.74-3.55-1.97-5.79-.1-8.08,6.71-16.39,13.13-24.5,19.79-1.79,1.47-2.95,1.51-4.76,.03-8.27-6.78-16.72-13.36-24.99-20.14-1.84-1.51-3.04-1.42-4.83,.04-8.21,6.71-16.57,13.23-24.76,19.95-1.85,1.51-3.03,1.72-5,.09-8.17-6.75-16.55-13.24-24.75-19.96-1.89-1.55-3.16-1.58-5.07-.01-8.19,6.72-16.57,13.22-24.75,19.96-1.95,1.61-3.13,1.46-5-.07-8.19-6.72-16.5-13.31-24.83-19.86-.87-.68-2.63-1.45-3.22-1.05-3.04,2.02-5.85,4.4-8.69,6.71-.33,.26-.53,.86-.54,1.3-.04,5.72-.02,11.45-.02,18.1Zm832.76,19.16c-6.25,5-11.8,9.3-17.18,13.8-1.77,1.48-2.94,1.56-4.76,.06-8.19-6.72-16.56-13.23-24.75-19.96-2-1.65-3.32-1.62-5.31,0-8.19,6.73-16.56,13.24-24.75,19.97-1.84,1.51-2.99,1.36-4.76-.08-8.2-6.72-16.56-13.23-24.76-19.95-1.87-1.53-3.14-1.63-5.07-.05-8.27,6.79-16.71,13.37-24.98,20.15-1.72,1.41-2.85,1.34-4.53-.03-8.13-6.65-16.41-13.1-24.52-19.78-2.12-1.74-3.55-1.97-5.79-.1-8.08,6.71-16.39,13.13-24.5,19.79-1.79,1.47-2.95,1.52-4.76,.03-8.27-6.78-16.72-13.36-24.99-20.14-1.84-1.51-3.04-1.42-4.83,.04-8.21,6.71-16.57,13.23-24.76,19.95-1.85,1.51-3.03,1.72-5,.09-8.17-6.75-16.55-13.24-24.75-19.96-1.89-1.55-3.16-1.58-5.07-.02-8.19,6.72-16.57,13.22-24.75,19.96-1.95,1.61-3.13,1.47-5-.07-8.11-6.66-16.41-13.11-24.52-19.77-1.96-1.61-3.28-1.74-5.31-.07-8.18,6.74-16.55,13.24-24.75,19.96-1.8,1.48-2.96,1.47-4.76,0-8.2-6.72-16.57-13.22-24.75-19.96-2.03-1.67-3.35-1.54-5.31,.07-8.12,6.66-16.41,13.11-24.52,19.77-1.87,1.54-3.05,1.67-5,.06-8.18-6.74-16.56-13.24-24.75-19.96-1.91-1.57-3.18-1.53-5.07,.02-8.12,6.65-16.41,13.1-24.53,19.76-1.9,1.56-3.15,1.84-5.22,.12-8.08-6.7-16.4-13.12-24.51-19.78-1.97-1.62-3.3-1.69-5.31-.04-8.18,6.73-16.55,13.24-24.75,19.97-1.82,1.49-2.97,1.43-4.76-.03-8.12-6.66-16.43-13.08-24.51-19.79-2.25-1.87-3.68-1.63-5.79,.11-8.1,6.68-16.39,13.13-24.51,19.78-1.69,1.38-2.81,1.43-4.53,.02-8.28-6.77-16.72-13.35-24.99-20.14-1.93-1.59-3.2-1.48-5.07,.05-8.13,6.65-16.42,13.1-24.53,19.76-1.93,1.58-3.18,1.78-5.22,.09-8.17-6.75-16.55-13.24-24.76-19.95-1.81-1.48-3.02-1.49-4.83,0-8.2,6.71-16.56,13.23-24.77,19.94-1.81,1.48-2.99,1.81-4.99,.15-8.09-6.7-16.4-13.12-24.5-19.79-2.06-1.69-3.43-1.82-5.55-.06-8.17,6.75-16.54,13.26-24.74,19.97-1.71,1.4-2.83,1.38-4.53-.01-7.51-6.15-15.09-12.21-22.71-18.23-5.68-4.48-3.59-4.19-9.69-.03-4.17,2.84-5.84,6.09-5.27,11.06,.43,3.75,.09,7.58,.09,12.19,3.02-2.39,5.44-4.09,7.6-6.07,1.85-1.7,3.21-1.48,5.08,.05,8.2,6.71,16.56,13.23,24.76,19.95,1.77,1.45,2.91,1.59,4.75,.08,8.19-6.73,16.56-13.24,24.74-19.97,1.98-1.63,3.33-1.64,5.32,0,8.19,6.73,16.54,13.26,24.76,19.95,1.61,1.32,2.7,1.64,4.52,.15,8.18-6.74,16.55-13.24,24.74-19.98,2.05-1.69,3.44-1.82,5.57-.07,8.17,6.75,16.54,13.26,24.74,19.97,1.71,1.4,2.81,1.4,4.52,0,8.2-6.72,16.55-13.25,24.75-19.96,1.92-1.58,3.27-1.81,5.32-.12,8.18,6.74,16.56,13.24,24.75,19.96,1.78,1.46,2.92,1.56,4.75,.06,8.19-6.73,16.56-13.24,24.75-19.97,1.99-1.64,3.34-1.61,5.32,.01,8.19,6.73,16.54,13.26,24.76,19.95,1.63,1.33,2.72,1.61,4.52,.13,8.18-6.74,16.55-13.24,24.74-19.98,2.06-1.7,3.45-1.79,5.57-.04,8.17,6.75,16.55,13.25,24.74,19.97,1.73,1.42,2.82,1.36,4.52-.03,8.2-6.71,16.55-13.24,24.75-19.96,1.93-1.58,3.28-1.78,5.32-.1,8.18,6.74,16.56,13.24,24.75,19.96,1.79,1.47,2.93,1.53,4.75,.04,8.19-6.73,16.56-13.24,24.75-19.97,2.01-1.65,3.35-1.58,5.32,.03,8.19,6.73,16.56,13.23,24.75,19.97,1.86,1.53,2.99,1.34,4.75-.11,8.2-6.72,16.56-13.24,24.76-19.95,1.88-1.54,3.16-1.59,5.08-.02,8.27,6.79,16.71,13.36,24.98,20.15,1.74,1.43,2.84,1.32,4.52-.05,8.2-6.71,16.56-13.24,24.75-19.96,1.94-1.6,3.29-1.75,5.32-.08,8.18,6.74,16.56,13.24,24.75,19.96,1.8,1.48,2.94,1.51,4.75,.02,8.19-6.73,16.56-13.23,24.75-19.97,2.02-1.66,3.36-1.55,5.32,.05,8.19,6.72,16.56,13.23,24.75,19.97,1.87,1.54,3,1.31,4.75-.13,8.2-6.72,16.56-13.24,24.76-19.95,1.89-1.55,3.18-1.56,5.08,0,8.2,6.72,16.56,13.23,24.76,19.95,1.75,1.43,2.88,1.68,4.75,.14,8.18-6.74,16.57-13.22,24.73-19.98,2.17-1.79,3.55-1.52,5.57,.14,8.19,6.73,16.54,13.25,24.75,19.97,1.63,1.33,2.66,1.32,4.28,0,8.2-6.71,16.58-13.22,24.74-19.98,2.23-1.85,3.68-1.68,5.81,.08,8.18,6.74,16.53,13.27,24.75,19.96,1.48,1.21,2.51,1.32,4.05,.06,5.35-4.41,10.82-8.67,16.22-13.03,.57-.46,1.31-1.19,1.32-1.8,.1-5.8,.06-11.61,.06-18.35Zm.03,38.19c-1.69,1.26-2.72,1.99-3.7,2.78-4.57,3.65-9.18,7.24-13.65,11.01-1.67,1.41-2.81,1.42-4.53,.02-8.28-6.77-16.72-13.35-24.99-20.14-1.94-1.59-3.21-1.47-5.07,.05-8.13,6.65-16.42,13.1-24.53,19.76-1.93,1.58-3.18,1.77-5.22,.08-8.17-6.75-16.55-13.24-24.75-19.95-1.81-1.48-3.01-1.5-4.83-.01-8.2,6.71-16.58,13.21-24.75,19.96-2.03,1.68-3.29,1.52-5.22-.07-8.03-6.6-16.28-12.95-24.28-19.6-2.27-1.89-3.7-1.59-5.79,.14-8.11,6.67-16.39,13.13-24.51,19.78-1.71,1.4-2.83,1.38-4.53,0-8.13-6.65-16.41-13.11-24.52-19.78-2.1-1.73-3.53-2.01-5.79-.13-8.07,6.71-16.39,13.13-24.5,19.79-1.78,1.46-2.94,1.55-4.76,.05-8.19-6.72-16.57-13.23-24.75-19.96-2-1.65-3.33-1.61-5.31,.02-8.19,6.73-16.56,13.24-24.75,19.97-1.84,1.51-3,1.35-4.76-.09-8.2-6.72-16.56-13.23-24.76-19.95-1.88-1.54-3.15-1.61-5.07-.04-8.27,6.79-16.71,13.37-24.98,20.15-1.73,1.42-2.85,1.33-4.53-.04-8.21-6.7-16.56-13.23-24.76-19.96-1.95-1.6-3.27-1.77-5.31-.09-8.18,6.74-16.55,13.24-24.75,19.96-1.79,1.47-2.95,1.5-4.76,.02-8.19-6.72-16.57-13.23-24.75-19.96-2.02-1.66-3.34-1.57-5.31,.05-8.11,6.66-16.41,13.11-24.52,19.77-1.85,1.52-3.03,1.7-5,.08-8.17-6.75-16.55-13.24-24.75-19.96-1.9-1.56-3.17-1.56-5.07,0-8.2,6.72-16.58,13.22-24.75,19.96-1.96,1.62-3.14,1.45-5-.08-8.11-6.66-16.41-13.11-24.52-19.77-1.96-1.61-3.29-1.73-5.31-.06-8.18,6.74-16.55,13.24-24.75,19.96-1.81,1.48-2.96,1.46-4.76-.01-8.2-6.72-16.57-13.22-24.75-19.96-2.04-1.68-3.36-1.52-5.31,.08-8.12,6.66-16.41,13.11-24.52,19.77-1.88,1.54-3.06,1.65-5,.05-8.18-6.74-16.56-13.24-24.75-19.96-1.92-1.57-3.19-1.51-5.07,.03-8.12,6.65-16.44,13.07-24.52,19.78-2.16,1.79-3.42,1.58-5.46-.1-8.1-6.68-16.4-13.11-24.53-19.76-1.8-1.47-3-1.52-4.83-.03-8.28,6.78-16.72,13.36-24.99,20.14-1.82,1.49-2.98,1.42-4.76-.04-8.28-6.78-16.71-13.37-25-20.13-1.67-1.37-2.91-1.6-4.59-.08-2.05,1.86-4.33,3.46-6.46,5.24-.56,.47-1.3,1.19-1.31,1.8-.1,5.8-.06,11.6-.06,18.21,2.83-2.23,5.16-3.86,7.23-5.76,1.94-1.78,3.41-1.9,5.56-.12,8.17,6.76,16.54,13.26,24.74,19.97,1.68,1.37,2.77,1.48,4.52,.05,8.27-6.78,16.71-13.36,24.98-20.15,1.91-1.57,3.2-1.51,5.08,.03,8.2,6.71,16.56,13.23,24.76,19.95,1.76,1.44,2.89,1.63,4.75,.11,8.18-6.73,16.55-13.24,24.74-19.97,1.97-1.62,3.32-1.68,5.32-.03,8.19,6.73,16.56,13.24,24.75,19.97,1.82,1.5,2.96,1.43,4.75-.04,8.19-6.72,16.57-13.23,24.75-19.97,2.04-1.68,3.39-1.48,5.32,.1,8.2,6.72,16.55,13.25,24.75,19.96,1.69,1.39,2.79,1.44,4.52,.02,8.19-6.72,16.57-13.23,24.74-19.98,2.11-1.75,3.51-1.65,5.57,.05,8.18,6.74,16.56,13.24,24.74,19.98,1.8,1.48,2.89,1.2,4.52-.13,8.22-6.7,16.57-13.23,24.76-19.96,1.98-1.63,3.33-1.65,5.32-.01,8.19,6.73,16.56,13.24,24.75,19.97,1.83,1.51,2.97,1.4,4.75-.06,8.19-6.72,16.57-13.22,24.75-19.96,2.06-1.69,3.4-1.45,5.32,.12,8.2,6.72,16.55,13.24,24.75,19.96,1.71,1.4,2.81,1.41,4.52,0,8.2-6.72,16.55-13.25,24.75-19.96,1.92-1.57,3.26-1.82,5.32-.12,8.18,6.74,16.56,13.24,24.75,19.96,1.78,1.46,2.92,1.57,4.75,.06,8.19-6.73,16.56-13.24,24.75-19.97,1.99-1.64,3.34-1.62,5.32,.01,8.19,6.73,16.54,13.26,24.76,19.95,1.63,1.32,2.72,1.61,4.52,.13,8.18-6.74,16.55-13.24,24.74-19.98,2.06-1.7,3.45-1.8,5.57-.05,8.17,6.75,16.54,13.25,24.74,19.97,1.72,1.41,2.82,1.37,4.52-.02,8.2-6.71,16.55-13.24,24.75-19.96,1.93-1.58,3.27-1.79,5.32-.1,8.18,6.74,16.56,13.24,24.75,19.96,1.79,1.47,2.93,1.54,4.75,.04,8.19-6.73,16.56-13.24,24.75-19.97,2-1.65,3.35-1.59,5.32,.03,8.19,6.73,16.56,13.24,24.75,19.97,1.85,1.52,2.99,1.34,4.75-.1,8.2-6.72,16.56-13.24,24.76-19.95,1.88-1.54,3.16-1.6,5.08-.03,8.27,6.79,16.71,13.36,24.98,20.15,1.74,1.43,2.84,1.33,4.52-.04,8.2-6.71,16.58-13.22,24.74-19.97,2.15-1.78,3.54-1.55,5.57,.11,8.19,6.73,16.54,13.26,24.75,19.97,1.61,1.32,2.66,1.37,4.29,.02,5.25-4.37,10.67-8.54,15.97-12.86,.68-.56,1.44-1.53,1.45-2.33,.13-5.63,.07-11.26,.07-17.75ZM10.1,479.79c3.07-2.42,5.53-4.2,7.8-6.2,1.65-1.46,2.91-1.42,4.6,0,4.94,4.13,9.97,8.16,15.06,12.09,.99,.77,2.44,1.3,3.69,1.33,5.75,.14,11.5,.15,17.25,0,1.34-.04,2.88-.61,3.95-1.43,5.1-3.93,10.12-7.97,15.07-12.09,1.61-1.34,2.8-1.33,4.36,.02,2.77,2.39,5.91,4.4,8.51,6.96,5.21,5.14,11.05,7.87,18.56,6.68,3-.47,6.14,.05,9.2-.14,1.26-.08,2.69-.58,3.69-1.35,5.09-3.94,10.12-7.96,15.06-12.1,1.71-1.43,2.92-1.35,4.6,.04,4.94,4.13,9.98,8.15,15.06,12.1,.93,.72,2.25,1.28,3.41,1.31,5.95,.13,11.9,.13,17.84,0,1.16-.02,2.49-.55,3.42-1.27,5.01-3.89,9.96-7.85,14.82-11.92,1.79-1.5,3.12-1.81,5.08-.14,4.82,4.12,9.79,8.06,14.82,11.92,1.07,.82,2.62,1.36,3.96,1.39,5.65,.15,11.3,.15,16.95,0,1.35-.04,2.91-.56,3.97-1.37,5.03-3.86,9.97-7.83,14.83-11.9,1.73-1.45,2.99-1.67,4.84-.11,4.84,4.1,9.8,8.04,14.83,11.91,1.07,.82,2.6,1.44,3.93,1.47,5.75,.16,11.5,.16,17.25,0,1.34-.04,2.86-.65,3.93-1.47,5.02-3.86,9.97-7.84,14.84-11.9,1.65-1.38,2.87-1.53,4.6-.09,4.86,4.07,9.81,8.04,14.84,11.89,1.14,.88,2.77,1.52,4.2,1.56,5.65,.18,11.3,.16,16.95,0,1.35-.04,2.9-.58,3.96-1.39,5.03-3.86,10-7.8,14.82-11.92,1.96-1.67,3.28-1.37,5.08,.13,4.86,4.07,9.82,8.03,14.82,11.91,.92,.72,2.26,1.24,3.42,1.27,5.85,.13,11.7,.15,17.55-.01,1.33-.04,2.85-.67,3.93-1.49,5.02-3.87,9.97-7.84,14.84-11.9,1.67-1.39,2.89-1.47,4.6-.04,4.94,4.13,9.97,8.16,15.06,12.09,1,.77,2.44,1.32,3.69,1.35,5.75,.14,11.5,.15,17.25,0,1.34-.04,2.89-.59,3.96-1.41,5.1-3.92,10.11-7.97,15.07-12.09,1.58-1.31,2.78-1.4,4.36-.02,2.61,2.28,5.63,4.13,8.04,6.58,5.46,5.55,11.71,8.28,19.61,7.07,2.81-.43,5.75,.06,8.61-.13,1.27-.09,2.7-.56,3.7-1.33,5.09-3.94,10.12-7.96,15.06-12.09,1.69-1.41,2.91-1.41,4.6,0,4.94,4.13,9.97,8.16,15.06,12.09,.99,.77,2.44,1.3,3.69,1.33,5.75,.14,11.5,.15,17.25,0,1.34-.04,2.88-.61,3.95-1.43,5.1-3.93,10.12-7.97,15.07-12.09,1.61-1.34,2.8-1.32,4.36,.02,2.77,2.39,5.91,4.4,8.51,6.96,5.21,5.14,11.05,7.87,18.56,6.68,3-.47,6.14,.05,9.2-.14,1.26-.08,2.69-.58,3.69-1.35,5.09-3.94,10.12-7.96,15.06-12.1,1.71-1.43,2.93-1.35,4.6,.04,4.94,4.13,9.98,8.15,15.06,12.1,.93,.72,2.25,1.28,3.41,1.3,5.95,.13,11.9,.13,17.84,0,1.16-.02,2.49-.55,3.42-1.27,5.01-3.89,9.96-7.85,14.82-11.92,1.79-1.5,3.12-1.81,5.08-.13,4.82,4.12,9.8,8.04,14.82,11.92,1,.77,2.43,1.36,3.67,1.39,5.85,.14,11.7,.14,17.55,0,1.25-.03,2.68-.59,3.68-1.37,5.02-3.88,9.97-7.84,14.83-11.91,1.73-1.45,2.99-1.67,4.84-.11,4.76,4.03,9.63,7.94,14.61,11.7,1.29,.97,3.13,1.61,4.75,1.67,5.35,.21,10.71,.23,16.05,0,1.7-.07,3.42-1.03,5-1.82,5.91-2.95,7.55-7.86,6.67-14.16-.42-3.04-.07-6.18-.07-9.97-1.72,1.28-2.75,2.01-3.74,2.8-4.57,3.65-9.19,7.23-13.64,11.01-1.71,1.45-2.86,1.32-4.53-.05-8.21-6.7-16.57-13.23-24.76-19.96-1.95-1.6-3.27-1.76-5.31-.08-8.18,6.74-16.55,13.24-24.75,19.97-1.8,1.47-2.96,1.49-4.76,.01-8.19-6.72-16.57-13.22-24.75-19.96-2.03-1.67-3.35-1.55-5.31,.06-8.11,6.66-16.41,13.11-24.52,19.77-1.86,1.53-3.04,1.68-5,.07-8.17-6.75-16.56-13.24-24.75-19.96-1.91-1.56-3.18-1.54-5.07,0-8.2,6.72-16.58,13.21-24.75,19.97-1.97,1.63-3.15,1.42-5-.09-8.12-6.66-16.41-13.1-24.53-19.77-1.97-1.62-3.3-1.7-5.31-.04-8.18,6.74-16.55,13.24-24.75,19.97-1.81,1.49-2.97,1.44-4.76-.03-8.12-6.66-16.43-13.08-24.51-19.79-2.25-1.87-3.68-1.64-5.79,.1-8.1,6.68-16.39,13.13-24.52,19.78-1.69,1.38-2.81,1.43-4.53,.02-8.28-6.77-16.72-13.35-24.99-20.14-1.93-1.59-3.2-1.48-5.07,.05-8.13,6.65-16.42,13.1-24.53,19.76-1.93,1.58-3.18,1.78-5.22,.09-8.17-6.75-16.55-13.24-24.76-19.95-1.81-1.48-3.02-1.49-4.83,0-8.2,6.71-16.56,13.23-24.77,19.94-1.81,1.48-3,1.8-4.99,.14-8.09-6.7-16.4-13.12-24.51-19.79-2.06-1.7-3.43-1.81-5.55-.06-8.17,6.75-16.54,13.26-24.74,19.97-1.72,1.4-2.84,1.36-4.53-.02-8.13-6.65-16.41-13.1-24.52-19.78-2.11-1.74-3.54-1.98-5.79-.11-8.08,6.71-16.39,13.13-24.5,19.79-1.79,1.47-2.94,1.53-4.76,.04-8.27-6.78-16.72-13.36-24.99-20.14-1.83-1.5-3.04-1.43-4.83,.03-8.13,6.64-16.43,13.08-24.53,19.76-2.05,1.69-3.31,1.88-5.46,.09-8.08-6.71-16.4-13.12-24.52-19.77-1.89-1.55-3.16-1.58-5.07-.02-8.19,6.72-16.57,13.22-24.75,19.96-1.95,1.61-3.13,1.47-5-.06-8.11-6.66-16.41-13.11-24.52-19.77-1.96-1.61-3.28-1.74-5.31-.07-8.18,6.74-16.55,13.24-24.75,19.97-1.8,1.48-2.96,1.47-4.76,0-8.2-6.72-16.55-13.25-24.76-19.95-1.82-1.49-3.09-1.75-5.07-.13-8.11,6.67-16.43,13.08-24.52,19.77-2.07,1.71-3.33,1.81-5.46,.05-8.16-6.76-16.48-13.33-24.83-19.86-.86-.67-2.76-1.15-3.49-.67-2.81,1.83-5.37,4.06-7.95,6.22-.46,.38-.82,1.16-.83,1.76-.06,5.64-.04,11.28-.04,17.87Z"/><path class="c" d="M10.21,327.45V11.55H842.84c0,1.13,0,2.37,0,3.6,0,92.47,0,184.95,0,277.42,0,10.8,0,21.61,.1,32.41,.02,1.98-.57,3.23-2.18,4.45-5.12,3.9-10.16,7.91-15.09,12.06-1.77,1.49-2.92,1.56-4.75,.06-8.19-6.73-16.56-13.24-24.75-19.97-1.99-1.64-3.34-1.62-5.32,0-8.19,6.73-16.54,13.26-24.76,19.95-1.63,1.33-2.72,1.61-4.52,.13-8.18-6.74-16.56-13.24-24.74-19.98-2.06-1.7-3.45-1.8-5.57-.05-8.17,6.75-16.54,13.25-24.74,19.97-1.72,1.41-2.82,1.37-4.52-.02-8.2-6.71-16.55-13.24-24.75-19.96-1.93-1.58-3.27-1.8-5.32-.11-8.18,6.74-16.55,13.24-24.75,19.96-1.79,1.47-2.92,1.54-4.75,.04-8.19-6.73-16.56-13.23-24.75-19.96-2-1.65-3.35-1.6-5.32,.02-8.19,6.73-16.54,13.26-24.75,19.96-1.64,1.33-2.73,1.59-4.52,.11-8.18-6.73-16.56-13.24-24.74-19.98-2.07-1.7-3.46-1.78-5.57-.04-8.17,6.75-16.55,13.25-24.74,19.98-1.74,1.42-2.83,1.34-4.52-.04-8.2-6.71-16.58-13.22-24.74-19.97-2.15-1.78-3.54-1.57-5.57,.1-8.19,6.73-16.54,13.26-24.75,19.97-1.61,1.32-2.65,1.37-4.28,.03-8.28-6.77-16.72-13.35-24.98-20.15-2.01-1.65-3.35-1.58-5.32,.04-8.19,6.73-16.56,13.24-24.74,19.97-1.86,1.53-2.99,1.33-4.75-.11-8.2-6.72-16.56-13.24-24.76-19.95-1.88-1.54-3.17-1.59-5.08-.02-8.27,6.78-16.71,13.36-24.98,20.15-1.75,1.43-2.84,1.32-4.52-.05-8.21-6.71-16.58-13.21-24.74-19.97-2.15-1.78-3.54-1.55-5.57,.11-8.19,6.73-16.54,13.26-24.75,19.97-1.62,1.32-2.65,1.35-4.28,.01-8.2-6.71-16.56-13.24-24.75-19.97-2.01-1.65-3.39-1.94-5.56-.15-8.16,6.76-16.55,13.25-24.73,19.98-1.87,1.54-3,1.31-4.75-.13-8.2-6.72-16.56-13.23-24.76-19.95-1.89-1.55-3.18-1.57-5.08,0-8.2,6.72-16.58,13.21-24.75,19.96-1.96,1.62-3.11,1.47-4.98-.07-8.11-6.67-16.42-13.09-24.51-19.78-2.16-1.79-3.55-1.53-5.57,.13-8.19,6.73-16.54,13.25-24.75,19.97-1.62,1.33-2.66,1.33-4.28,0-8.2-6.71-16.56-13.24-24.75-19.97-2.01-1.65-3.4-1.92-5.57-.13-8.16,6.76-16.55,13.25-24.73,19.98-1.87,1.54-3,1.29-4.75-.14-8.2-6.72-16.56-13.23-24.76-19.95-1.9-1.56-3.26-1.64-5.08,.01-2.17,1.96-4.57,3.67-7.45,5.94Z"/><path d="M10.11,365.61c0-6.65-.01-12.38,.02-18.1,0-.44,.21-1.04,.54-1.3,2.85-2.31,5.65-4.68,8.69-6.71,.6-.4,2.36,.37,3.22,1.05,8.33,6.55,16.64,13.14,24.83,19.86,1.86,1.53,3.04,1.68,5,.07,8.17-6.75,16.55-13.24,24.75-19.96,1.9-1.56,3.18-1.54,5.07,.01,8.2,6.72,16.58,13.21,24.75,19.96,1.97,1.63,3.15,1.42,5-.09,8.2-6.72,16.56-13.24,24.76-19.95,1.78-1.46,2.99-1.55,4.83-.04,8.27,6.78,16.72,13.36,24.99,20.14,1.81,1.49,2.97,1.44,4.76-.03,8.12-6.66,16.43-13.08,24.5-19.79,2.24-1.86,3.67-1.64,5.79,.1,8.1,6.68,16.39,13.13,24.52,19.78,1.68,1.37,2.8,1.44,4.53,.03,8.28-6.78,16.72-13.36,24.98-20.15,1.92-1.58,3.19-1.49,5.07,.05,8.2,6.71,16.56,13.23,24.76,19.95,1.77,1.45,2.92,1.6,4.76,.09,8.19-6.73,16.56-13.24,24.75-19.97,1.98-1.63,3.31-1.66,5.31-.01,8.18,6.73,16.56,13.24,24.75,19.96,1.83,1.5,2.98,1.4,4.76-.06,8.12-6.66,16.41-13.11,24.51-19.78,2.05-1.69,3.42-1.83,5.55-.07,8.17,6.75,16.54,13.26,24.74,19.97,1.7,1.39,2.83,1.39,4.53,0,8.12-6.65,16.41-13.11,24.51-19.78,2.1-1.73,3.53-2.01,5.79-.13,8,6.65,16.24,12.99,24.28,19.6,1.94,1.6,3.19,1.74,5.22,.06,8.17-6.75,16.55-13.24,24.75-19.96,1.82-1.49,3.02-1.46,4.83,.02,8.13,6.65,16.46,13.05,24.52,19.77,2.27,1.89,3.58,1.65,5.69-.1,8.02-6.62,16.25-12.99,24.3-19.57,1.87-1.53,3.14-1.62,5.07-.04,8.27,6.79,16.71,13.37,24.99,20.14,1.73,1.41,2.85,1.34,4.53-.03,8.13-6.65,16.41-13.1,24.51-19.78,2.12-1.74,3.55-1.96,5.79-.1,8.08,6.71,16.39,13.13,24.51,19.79,1.79,1.47,2.95,1.51,4.76,.03,8.19-6.72,16.56-13.23,24.75-19.97,2.02-1.66,3.34-1.57,5.31,.05,8.11,6.67,16.41,13.11,24.52,19.77,1.85,1.52,3.03,1.72,5,.09,8.17-6.75,16.55-13.25,24.75-19.96,1.89-1.55,3.16-1.57,5.07,0,8.19,6.72,16.58,13.22,24.75,19.96,1.95,1.61,3.13,1.46,5-.07,8.11-6.66,16.41-13.11,24.52-19.77,1.96-1.61,3.28-1.73,5.31-.06,8.18,6.74,16.55,13.24,24.75,19.96,1.8,1.48,2.98,1.51,4.76,0,4.45-3.79,9.07-7.37,13.64-11.01,.97-.77,2-1.46,3.57-2.6,0,6.5,.04,12.31-.06,18.1-.01,.62-.73,1.35-1.3,1.81-5.39,4.36-10.87,8.62-16.22,13.02-1.51,1.25-2.54,1.22-4.05,0-8.22-6.7-16.56-13.23-24.75-19.96-2.1-1.73-3.55-2-5.81-.13-8.08,6.71-16.39,13.13-24.5,19.79-1.78,1.47-2.92,1.56-4.75,.05-8.19-6.73-16.56-13.24-24.75-19.97-2-1.64-3.34-1.61-5.32,.02-8.19,6.73-16.54,13.26-24.76,19.96-1.63,1.33-2.72,1.6-4.52,.12-8.18-6.74-16.56-13.24-24.74-19.98-2.06-1.7-3.46-1.79-5.57-.04-8.17,6.75-16.54,13.25-24.74,19.98-1.73,1.42-2.83,1.35-4.52-.03-8.2-6.71-16.56-13.24-24.75-19.96-1.94-1.59-3.28-1.78-5.32-.1-8.18,6.74-16.56,13.24-24.75,19.97-1.79,1.47-2.93,1.53-4.75,.03-8.19-6.73-16.56-13.23-24.75-19.96-2.01-1.65-3.35-1.58-5.32,.04-8.19,6.73-16.56,13.24-24.74,19.97-1.86,1.53-2.99,1.33-4.75-.11-8.2-6.72-16.56-13.24-24.76-19.95-1.88-1.54-3.17-1.59-5.08-.02-8.27,6.78-16.71,13.36-24.98,20.15-1.75,1.43-2.84,1.32-4.52-.05-8.21-6.71-16.58-13.21-24.74-19.97-2.16-1.78-3.54-1.54-5.57,.12-8.19,6.73-16.54,13.26-24.75,19.97-1.62,1.32-2.65,1.35-4.28,.01-8.2-6.71-16.56-13.24-24.75-19.97-2.01-1.65-3.4-1.94-5.57-.14-8.16,6.76-16.55,13.25-24.73,19.98-1.87,1.54-3,1.3-4.75-.13-8.2-6.72-16.56-13.23-24.76-19.95-1.9-1.55-3.18-1.56-5.08,0-8.2,6.72-16.58,13.21-24.75,19.96-1.96,1.62-3.12,1.46-4.98-.07-8.11-6.67-16.4-13.11-24.52-19.77-1.96-1.6-3.3-1.72-5.32-.06-8.18,6.73-16.56,13.24-24.75,19.97-1.81,1.49-2.95,1.47-4.75,0-8.19-6.73-16.57-13.23-24.75-19.96-2.03-1.67-3.37-1.53-5.32,.07-8.12,6.66-16.41,13.1-24.52,19.77-1.88,1.55-3.03,1.67-4.98,.06-8.17-6.75-16.55-13.24-24.75-19.96-1.91-1.56-3.2-1.53-5.08,.02-8.2,6.71-16.56,13.23-24.76,19.95-1.76,1.44-2.89,1.64-4.75,.11-8.18-6.73-16.55-13.24-24.75-19.97-1.97-1.61-3.31-1.7-5.32-.04-8.19,6.73-16.56,13.24-24.75,19.97-1.82,1.5-2.96,1.44-4.75-.03-8.19-6.72-16.57-13.23-24.75-19.96-2.04-1.68-3.46-1.6-5.32,.1-2.1,1.91-4.43,3.57-7.38,5.91Z"/><path d="M842.87,384.77c0,6.74,.04,12.55-.06,18.35-.01,.61-.75,1.34-1.32,1.8-5.39,4.36-10.87,8.61-16.22,13.03-1.54,1.27-2.56,1.15-4.05-.06-8.22-6.69-16.57-13.22-24.75-19.96-2.13-1.76-3.58-1.92-5.81-.08-8.16,6.76-16.53,13.27-24.74,19.98-1.62,1.33-2.66,1.34-4.28,0-8.2-6.71-16.56-13.24-24.75-19.97-2.01-1.65-3.4-1.93-5.57-.14-8.16,6.76-16.55,13.25-24.73,19.98-1.87,1.54-3,1.3-4.75-.14-8.2-6.72-16.56-13.23-24.76-19.95-1.9-1.56-3.19-1.55-5.08,0-8.2,6.72-16.56,13.23-24.76,19.95-1.75,1.44-2.88,1.66-4.75,.13-8.18-6.73-16.55-13.24-24.75-19.97-1.96-1.61-3.3-1.71-5.32-.05-8.18,6.73-16.56,13.24-24.75,19.97-1.81,1.49-2.95,1.46-4.75-.02-8.19-6.72-16.57-13.23-24.75-19.96-2.03-1.67-3.38-1.52-5.32,.08-8.19,6.72-16.55,13.25-24.75,19.96-1.68,1.37-2.77,1.48-4.52,.05-8.27-6.78-16.71-13.36-24.98-20.15-1.91-1.57-3.2-1.51-5.08,.02-8.2,6.71-16.56,13.23-24.76,19.95-1.76,1.44-2.89,1.63-4.75,.11-8.19-6.73-16.55-13.24-24.75-19.97-1.97-1.62-3.32-1.68-5.32-.03-8.19,6.73-16.56,13.24-24.75,19.97-1.82,1.5-2.96,1.43-4.75-.04-8.19-6.72-16.57-13.23-24.75-19.96-2.04-1.68-3.39-1.48-5.32,.1-8.2,6.72-16.55,13.25-24.75,19.96-1.69,1.39-2.79,1.44-4.52,.03-8.19-6.72-16.57-13.23-24.74-19.97-2.11-1.75-3.5-1.65-5.57,.04-8.18,6.74-16.55,13.24-24.74,19.98-1.8,1.48-2.89,1.2-4.52-.13-8.22-6.7-16.57-13.23-24.76-19.95-1.98-1.63-3.33-1.65-5.32-.01-8.19,6.73-16.56,13.24-24.75,19.97-1.83,1.51-2.97,1.4-4.75-.06-8.19-6.72-16.57-13.22-24.75-19.96-2.06-1.69-3.4-1.45-5.32,.12-8.2,6.72-16.55,13.25-24.75,19.96-1.71,1.4-2.81,1.41-4.52,0-8.2-6.72-16.57-13.22-24.74-19.97-2.13-1.76-3.52-1.62-5.57,.07-8.18,6.74-16.56,13.24-24.74,19.98-1.81,1.49-2.9,1.17-4.52-.15-8.22-6.69-16.57-13.22-24.76-19.95-1.99-1.64-3.34-1.62-5.32,0-8.19,6.73-16.56,13.24-24.74,19.97-1.84,1.52-2.98,1.38-4.75-.08-8.19-6.72-16.56-13.24-24.76-19.95-1.86-1.52-3.22-1.74-5.08-.05-2.16,1.98-4.58,3.68-7.6,6.07,0-4.61,.35-8.44-.09-12.19-.57-4.97,1.1-8.22,5.27-11.06,6.1-4.15,4.01-4.45,9.69,.03,7.62,6.01,15.21,12.07,22.71,18.23,1.69,1.39,2.82,1.41,4.53,.01,8.2-6.71,16.57-13.22,24.74-19.97,2.13-1.76,3.5-1.63,5.55,.06,8.1,6.68,16.42,13.09,24.5,19.79,2,1.66,3.18,1.33,4.99-.15,8.2-6.71,16.56-13.23,24.77-19.94,1.81-1.48,3.02-1.47,4.83,0,8.2,6.71,16.59,13.2,24.76,19.95,2.05,1.69,3.3,1.49,5.22-.09,8.12-6.66,16.4-13.11,24.53-19.76,1.86-1.52,3.13-1.63,5.07-.05,8.27,6.79,16.71,13.37,24.99,20.14,1.72,1.41,2.84,1.36,4.53-.02,8.13-6.65,16.41-13.1,24.51-19.78,2.11-1.74,3.54-1.98,5.79-.11,8.07,6.71,16.39,13.13,24.51,19.79,1.79,1.47,2.95,1.52,4.76,.03,8.19-6.72,16.56-13.23,24.75-19.97,2.01-1.65,3.33-1.58,5.31,.04,8.11,6.67,16.43,13.08,24.51,19.78,2.07,1.71,3.32,1.44,5.22-.12,8.12-6.66,16.41-13.11,24.53-19.76,1.88-1.54,3.16-1.58,5.07-.02,8.19,6.72,16.58,13.22,24.75,19.96,1.95,1.61,3.13,1.48,5-.06,8.11-6.67,16.41-13.11,24.52-19.77,1.95-1.6,3.28-1.74,5.31-.07,8.18,6.74,16.55,13.24,24.75,19.96,1.8,1.48,2.96,1.48,4.76,0,8.19-6.72,16.57-13.23,24.75-19.96,2.03-1.67,3.35-1.54,5.31,.07,8.11,6.66,16.41,13.11,24.52,19.77,1.86,1.53,3.04,1.68,5,.07,8.17-6.75,16.55-13.24,24.75-19.96,1.9-1.56,3.18-1.53,5.07,.02,8.2,6.72,16.58,13.21,24.75,19.96,1.97,1.63,3.15,1.42,5-.09,8.2-6.72,16.56-13.24,24.76-19.95,1.78-1.46,2.99-1.55,4.83-.04,8.27,6.78,16.72,13.36,24.99,20.14,1.81,1.49,2.97,1.44,4.76-.03,8.12-6.66,16.43-13.08,24.5-19.79,2.24-1.86,3.68-1.64,5.79,.1,8.1,6.68,16.39,13.13,24.52,19.78,1.68,1.37,2.8,1.44,4.53,.03,8.28-6.78,16.72-13.36,24.98-20.15,1.92-1.58,3.2-1.48,5.07,.05,8.2,6.71,16.56,13.23,24.76,19.95,1.77,1.45,2.92,1.59,4.76,.08,8.19-6.73,16.56-13.24,24.75-19.97,1.99-1.63,3.31-1.65,5.31,0,8.18,6.73,16.56,13.24,24.75,19.96,1.83,1.5,3,1.42,4.76-.06,5.38-4.5,10.93-8.81,17.18-13.8Z"/><path d="M842.9,422.97c0,6.49,.06,12.12-.07,17.75-.02,.8-.77,1.77-1.45,2.33-5.3,4.32-10.71,8.49-15.97,12.86-1.63,1.35-2.67,1.3-4.29-.02-8.2-6.71-16.56-13.24-24.75-19.97-2.02-1.66-3.41-1.89-5.57-.11-8.17,6.76-16.54,13.26-24.74,19.97-1.68,1.37-2.78,1.47-4.52,.04-8.27-6.78-16.71-13.36-24.98-20.15-1.92-1.57-3.2-1.51-5.08,.03-8.2,6.71-16.56,13.23-24.76,19.95-1.76,1.45-2.9,1.63-4.75,.1-8.19-6.73-16.56-13.24-24.75-19.97-1.97-1.62-3.32-1.68-5.32-.03-8.19,6.73-16.56,13.24-24.75,19.97-1.83,1.5-2.96,1.43-4.75-.04-8.19-6.72-16.57-13.22-24.75-19.96-2.05-1.69-3.39-1.48-5.32,.1-8.2,6.72-16.55,13.25-24.75,19.96-1.7,1.39-2.79,1.44-4.52,.02-8.2-6.72-16.57-13.22-24.74-19.97-2.12-1.75-3.51-1.65-5.57,.05-8.18,6.74-16.56,13.24-24.74,19.98-1.8,1.48-2.89,1.19-4.52-.13-8.22-6.7-16.57-13.22-24.76-19.95-1.98-1.63-3.33-1.65-5.32-.01-8.19,6.73-16.56,13.24-24.75,19.97-1.84,1.51-2.97,1.4-4.75-.06-8.19-6.72-16.57-13.22-24.75-19.96-2.06-1.7-3.4-1.45-5.32,.12-8.2,6.72-16.55,13.24-24.75,19.96-1.71,1.4-2.81,1.4-4.52,0-8.2-6.72-16.55-13.24-24.75-19.96-1.92-1.57-3.26-1.82-5.32-.12-8.18,6.74-16.55,13.24-24.75,19.96-1.78,1.46-2.92,1.57-4.75,.06-8.19-6.73-16.56-13.24-24.75-19.97-1.99-1.64-3.34-1.62-5.32,.01-8.19,6.73-16.54,13.26-24.76,19.96-1.63,1.33-2.72,1.61-4.52,.13-8.18-6.74-16.56-13.24-24.74-19.98-2.06-1.7-3.45-1.79-5.57-.05-8.17,6.75-16.54,13.25-24.74,19.98-1.73,1.42-2.82,1.36-4.52-.02-8.2-6.71-16.56-13.24-24.75-19.96-1.93-1.58-3.28-1.79-5.32-.1-8.18,6.74-16.56,13.24-24.75,19.97-1.79,1.47-2.93,1.54-4.75,.04-8.19-6.73-16.56-13.23-24.75-19.97-2.01-1.65-3.35-1.59-5.32,.03-8.19,6.73-16.56,13.24-24.74,19.97-1.86,1.53-2.99,1.34-4.75-.11-8.2-6.72-16.56-13.24-24.76-19.95-1.88-1.54-3.17-1.6-5.08-.03-8.27,6.79-16.71,13.36-24.98,20.15-1.74,1.43-2.84,1.32-4.52-.05-8.21-6.71-16.58-13.21-24.74-19.97-2.15-1.78-3.62-1.66-5.56,.12-2.07,1.9-4.4,3.53-7.23,5.76,0-6.62-.04-12.41,.06-18.21,.01-.61,.75-1.33,1.31-1.8,2.13-1.78,4.41-3.39,6.46-5.24,1.68-1.51,2.91-1.28,4.59,.08,8.29,6.76,16.72,13.35,25,20.13,1.78,1.46,2.94,1.54,4.76,.04,8.27-6.78,16.71-13.36,24.99-20.14,1.82-1.49,3.03-1.44,4.83,.03,8.13,6.65,16.43,13.08,24.53,19.76,2.04,1.68,3.3,1.9,5.46,.1,8.07-6.71,16.39-13.13,24.52-19.78,1.88-1.54,3.15-1.6,5.07-.03,8.19,6.72,16.57,13.22,24.75,19.96,1.94,1.6,3.12,1.49,5-.05,8.11-6.67,16.4-13.11,24.52-19.77,1.95-1.6,3.27-1.76,5.31-.08,8.18,6.74,16.55,13.24,24.75,19.96,1.8,1.47,2.95,1.49,4.76,.01,8.19-6.72,16.57-13.23,24.75-19.96,2.02-1.67,3.35-1.55,5.31,.06,8.11,6.66,16.41,13.11,24.52,19.77,1.86,1.53,3.04,1.69,5,.08,8.17-6.75,16.55-13.24,24.75-19.96,1.9-1.56,3.17-1.55,5.07,0,8.2,6.72,16.58,13.21,24.75,19.96,1.96,1.62,3.14,1.44,5-.08,8.12-6.66,16.41-13.11,24.52-19.77,1.97-1.61,3.29-1.71,5.31-.05,8.18,6.74,16.56,13.24,24.75,19.96,1.81,1.48,2.97,1.45,4.76-.02,8.19-6.72,16.57-13.23,24.75-19.96,2.04-1.68,3.36-1.51,5.31,.09,8.19,6.73,16.55,13.25,24.76,19.96,1.68,1.37,2.8,1.46,4.53,.04,8.28-6.78,16.72-13.36,24.98-20.15,1.92-1.57,3.19-1.5,5.07,.04,8.2,6.72,16.56,13.23,24.76,19.95,1.76,1.45,2.92,1.61,4.76,.09,8.19-6.73,16.56-13.24,24.75-19.97,1.98-1.63,3.31-1.67,5.31-.02,8.18,6.73,16.56,13.24,24.75,19.96,1.82,1.5,2.98,1.41,4.76-.05,8.12-6.66,16.43-13.08,24.5-19.79,2.26-1.88,3.69-1.6,5.79,.13,8.11,6.67,16.39,13.13,24.52,19.78,1.7,1.39,2.82,1.4,4.53,0,8.12-6.65,16.41-13.11,24.51-19.78,2.09-1.72,3.52-2.02,5.79-.14,8,6.65,16.24,12.99,24.28,19.6,1.94,1.59,3.19,1.75,5.22,.07,8.17-6.75,16.55-13.24,24.75-19.96,1.81-1.48,3.02-1.47,4.83,.01,8.2,6.71,16.58,13.2,24.75,19.95,2.04,1.69,3.29,1.5,5.22-.08,8.11-6.66,16.4-13.11,24.53-19.76,1.86-1.52,3.13-1.64,5.07-.05,8.26,6.79,16.71,13.37,24.99,20.14,1.71,1.4,2.85,1.39,4.53-.02,4.47-3.77,9.08-7.36,13.65-11.01,.98-.79,2.01-1.51,3.7-2.78Z"/><path d="M10.1,479.79c0-6.59-.03-12.23,.04-17.87,0-.6,.37-1.37,.83-1.76,2.58-2.16,5.14-4.39,7.95-6.22,.73-.48,2.63,0,3.49,.67,8.35,6.52,16.67,13.09,24.83,19.86,2.13,1.76,3.39,1.66,5.46-.05,8.09-6.69,16.41-13.1,24.52-19.77,1.98-1.63,3.24-1.36,5.07,.13,8.21,6.7,16.57,13.23,24.76,19.95,1.8,1.48,2.96,1.48,4.76,0,8.19-6.72,16.57-13.23,24.75-19.97,2.03-1.67,3.35-1.54,5.31,.07,8.11,6.66,16.41,13.11,24.52,19.77,1.87,1.53,3.05,1.67,5,.06,8.17-6.75,16.55-13.24,24.75-19.96,1.91-1.56,3.18-1.53,5.07,.02,8.12,6.65,16.44,13.07,24.52,19.77,2.15,1.79,3.41,1.6,5.46-.09,8.1-6.68,16.4-13.12,24.53-19.76,1.79-1.46,2.99-1.54,4.83-.03,8.27,6.78,16.72,13.36,24.99,20.14,1.82,1.49,2.97,1.43,4.76-.04,8.12-6.66,16.43-13.08,24.5-19.79,2.25-1.87,3.68-1.63,5.79,.11,8.1,6.68,16.39,13.13,24.52,19.78,1.69,1.38,2.81,1.42,4.53,.02,8.2-6.71,16.57-13.22,24.74-19.97,2.12-1.76,3.49-1.64,5.55,.06,8.1,6.68,16.42,13.1,24.51,19.79,2,1.66,3.18,1.34,4.99-.14,8.2-6.71,16.56-13.23,24.77-19.94,1.81-1.48,3.01-1.48,4.83,0,8.2,6.71,16.59,13.2,24.76,19.95,2.04,1.69,3.3,1.5,5.22-.09,8.12-6.66,16.41-13.11,24.53-19.76,1.86-1.52,3.13-1.64,5.07-.05,8.27,6.79,16.71,13.37,24.99,20.14,1.72,1.41,2.84,1.35,4.53-.02,8.13-6.65,16.41-13.1,24.52-19.78,2.11-1.74,3.54-1.97,5.79-.1,8.08,6.71,16.39,13.13,24.51,19.79,1.79,1.47,2.95,1.52,4.76,.03,8.19-6.72,16.56-13.23,24.75-19.97,2.01-1.66,3.34-1.58,5.31,.04,8.11,6.67,16.41,13.11,24.53,19.77,1.85,1.51,3.03,1.72,5,.09,8.17-6.75,16.55-13.25,24.75-19.97,1.89-1.55,3.16-1.57,5.07,0,8.19,6.72,16.58,13.22,24.75,19.96,1.95,1.61,3.13,1.46,5-.07,8.11-6.66,16.41-13.11,24.52-19.77,1.96-1.61,3.28-1.73,5.31-.06,8.18,6.74,16.56,13.24,24.75,19.96,1.81,1.48,2.96,1.46,4.76-.01,8.19-6.72,16.57-13.23,24.75-19.97,2.03-1.68,3.36-1.52,5.31,.08,8.19,6.73,16.55,13.25,24.76,19.96,1.67,1.36,2.81,1.5,4.53,.05,4.46-3.78,9.08-7.36,13.64-11.01,.99-.79,2.03-1.52,3.74-2.8,0,3.78-.35,6.93,.07,9.97,.87,6.3-.77,11.21-6.67,14.16-1.59,.79-3.31,1.75-5,1.82-5.34,.23-10.71,.21-16.05,0-1.62-.06-3.46-.7-4.75-1.67-4.98-3.75-9.85-7.67-14.61-11.7-1.85-1.57-3.11-1.34-4.84,.11-4.86,4.07-9.81,8.04-14.83,11.91-1,.77-2.43,1.34-3.68,1.37-5.85,.14-11.7,.14-17.55,0-1.25-.03-2.67-.61-3.67-1.39-5.02-3.88-10-7.8-14.82-11.92-1.96-1.68-3.28-1.37-5.08,.13-4.86,4.07-9.82,8.03-14.82,11.92-.92,.72-2.26,1.24-3.42,1.27-5.95,.13-11.9,.13-17.84,0-1.15-.03-2.48-.58-3.41-1.3-5.08-3.95-10.12-7.97-15.06-12.1-1.67-1.4-2.89-1.47-4.6-.04-4.94,4.13-9.97,8.16-15.06,12.1-1,.77-2.43,1.27-3.69,1.35-3.06,.19-6.21-.33-9.2,.14-7.51,1.18-13.35-1.54-18.56-6.68-2.6-2.56-5.73-4.56-8.51-6.96-1.56-1.35-2.75-1.36-4.36-.02-4.95,4.12-9.96,8.16-15.07,12.09-1.07,.82-2.61,1.4-3.95,1.43-5.75,.15-11.5,.14-17.25,0-1.25-.03-2.7-.56-3.69-1.33-5.1-3.94-10.12-7.96-15.06-12.09-1.69-1.41-2.91-1.41-4.6,0-4.94,4.13-9.97,8.16-15.06,12.09-.99,.77-2.43,1.24-3.7,1.33-2.86,.19-5.8-.3-8.61,.13-7.9,1.21-14.15-1.52-19.61-7.07-2.42-2.45-5.43-4.31-8.04-6.58-1.58-1.38-2.78-1.29-4.36,.02-4.95,4.11-9.96,8.16-15.07,12.09-1.07,.82-2.61,1.38-3.96,1.41-5.75,.15-11.5,.14-17.25,0-1.25-.03-2.69-.58-3.69-1.35-5.09-3.94-10.12-7.96-15.06-12.09-1.71-1.43-2.93-1.35-4.6,.04-4.87,4.06-9.81,8.03-14.84,11.9-1.07,.83-2.59,1.46-3.93,1.49-5.85,.16-11.7,.14-17.55,.01-1.16-.03-2.49-.55-3.42-1.27-5.01-3.89-9.96-7.85-14.82-11.91-1.8-1.5-3.12-1.81-5.08-.13-4.82,4.12-9.79,8.06-14.82,11.92-1.07,.82-2.62,1.36-3.96,1.39-5.65,.15-11.3,.17-16.95,0-1.43-.04-3.05-.68-4.2-1.56-5.03-3.85-9.98-7.82-14.84-11.89-1.73-1.45-2.95-1.29-4.6,.09-4.87,4.06-9.81,8.03-14.84,11.9-1.07,.82-2.6,1.44-3.93,1.47-5.75,.16-11.5,.16-17.25,0-1.34-.04-2.86-.65-3.93-1.47-5.03-3.86-9.99-7.81-14.83-11.91-1.85-1.56-3.1-1.35-4.84,.11-4.86,4.07-9.8,8.05-14.83,11.9-1.06,.82-2.62,1.34-3.97,1.37-5.65,.15-11.3,.15-16.95,0-1.35-.04-2.9-.58-3.96-1.39-5.03-3.86-10.01-7.8-14.82-11.92-1.96-1.68-3.29-1.36-5.08,.14-4.86,4.07-9.82,8.03-14.82,11.92-.92,.72-2.26,1.24-3.42,1.27-5.95,.13-11.9,.13-17.84,0-1.15-.03-2.48-.58-3.41-1.31-5.08-3.95-10.12-7.97-15.06-12.1-1.67-1.4-2.89-1.47-4.6-.04-4.94,4.13-9.97,8.16-15.06,12.1-1,.77-2.43,1.27-3.69,1.35-3.06,.19-6.21-.33-9.2,.14-7.51,1.18-13.35-1.54-18.56-6.68-2.6-2.56-5.73-4.56-8.51-6.96-1.56-1.35-2.76-1.36-4.36-.02-4.95,4.12-9.96,8.16-15.07,12.09-1.07,.82-2.61,1.4-3.95,1.43-5.75,.15-11.5,.14-17.25,0-1.25-.03-2.7-.56-3.69-1.33-5.1-3.94-10.12-7.96-15.06-12.09-1.69-1.41-2.94-1.46-4.6,0-2.27,2-4.73,3.79-7.8,6.2Z"/></svg>