<?xml version="1.0" encoding="utf-8"?>
<!-- Generator: Adobe Illustrator 26.1.0, SVG Export Plug-In . SVG Version: 6.00 Build 0)  -->
<svg version="1.1" id="Layer_1" xmlns="http://www.w3.org/2000/svg" xmlns:xlink="http://www.w3.org/1999/xlink" x="0px" y="0px"
	 viewBox="0 0 1000 1000" style="enable-background:new 0 0 1000 1000;" xml:space="preserve">
<style type="text/css">
	.st0{fill:#FFFFFF;}
	.st1{fill:#CA7453;}
</style>
<g>
	<path class="st0" d="M72,792c0-195,0-390,0-585c285.7,0,571.3,0,857,0c0,195,0,390,0,585C643.3,792,357.7,792,72,792z M296.5,759.9
		c63.3,0,126.6,0,190,0c6.6,0,6.6,0,6.6-6.7c0-45.7,0-91.3,0-137c0-5.3-0.2-10.7,0.1-16c0.2-3.6-1.2-5.2-4.7-5.6
		c-3.1-0.3-6.3-0.6-9.4-1.3c-20.9-4.9-38.4-15.3-52.4-31.8c-22.3-26.3-29.2-56.7-18.8-89.1c12.1-37.5,38.4-60.6,78.2-66.7
		c6.8-1,6.9-1.1,6.9-8.3c0-49.3,0-98.6,0-148c0-0.8-0.1-1.7,0-2.5c0.5-4.1-1.5-5.4-5.3-5c-1,0.1-2,0-3,0c-125.1,0-250.3,0-375.4,0
		c-1.5,0-3.1-0.3-4.5,0.1c-1.3,0.4-2.5,1.5-3.7,2.3c1,1.4,1.9,3,3.2,4.1c0.9,0.8,2.5,0.8,3.8,1.1c21.5,4.1,42,11.1,61.8,20.5
		c26.1,12.5,49.3,29.2,69.7,49.5c16.2,16.1,30,34.3,41.3,54.3c13,22.9,22.3,47.2,27.7,72.9c3.7,17.6,6.1,35.4,5,53.5
		c-0.9,14.9-1.2,29.9-3.5,44.6c-3.7,23.2-11.2,45.4-21.6,66.6c-9.3,19.1-20.8,36.8-34.5,53c-13.6,16-29,30.2-46.1,42.6
		c-22.6,16.3-47.2,28.6-73.8,36.8c-9.5,2.9-19.3,4.8-29,7.4c-1.5,0.4-3.5,2-3.9,3.5c-1.3,4.8,1.9,5.3,5.8,5.3
		C170.2,759.9,233.3,759.9,296.5,759.9z M702.2,759.9c62.8,0,125.6,0,188.5,0c1.7,0,3.4,0.3,5-0.2c1.3-0.4,3-1.7,3-2.8
		c0.1-1.2-1.1-2.9-2.2-3.6c-1.3-0.8-3.2-0.9-4.8-1.3c-11.2-2.3-22.6-3.9-33.6-7c-33.9-9.6-64.5-25.9-91.6-48.4
		c-24.9-20.6-45.2-45.1-60.9-73.4c-20-36.2-30.4-75.1-31.7-116.3c-0.9-29.8,3.4-59,12.9-87.4c14-41.9,37.3-77.8,69.8-107.7
		c24.7-22.7,52.7-40,84.2-51.5c16.6-6.1,33.5-10.9,51.1-12.8c1.6-0.2,3.3-0.6,4.8-1.2c0.9-0.4,1.9-1.6,1.9-2.4c0-0.7-1.3-1.7-2.2-2
		c-1.4-0.4-3-0.2-4.5-0.2c-19.3,0-38.7,0-58,0c-107.3,0-214.6,0-321.9,0c-4.2,0-7.2-0.1-7.1,5.8c0.2,50.5,0.2,101,0,151.5
		c0,4.1,1.6,5.6,5.3,6.2c5.7,0.9,11.6,1.6,17.1,3.4c17.5,5.6,32.2,15.5,44.2,29.6c22.4,26.3,28.9,56.8,18.7,89
		c-11.9,37.5-38.4,60.6-78.2,66.7c-6.8,1-6.9,1.1-6.9,8.3c0,50,0,100,0,150c0,7.5,0,7.5,7.8,7.5C575.9,759.9,639,759.9,702.2,759.9z
		 M898.9,340.1c0-25.5,0-51,0-76.5c0-5.6-0.9-6.4-6.5-5.4c-5.9,1-11.7,2.2-17.6,3.5c-25.1,5.5-48.5,15-70.6,28.1
		c-26,15.3-48.3,34.9-67,58.5c-20.2,25.5-35.2,53.8-43.3,85.3c-3.9,15.2-7.4,30.8-8.4,46.5c-1.1,17-0.2,34.3,1.6,51.3
		c1.5,14.1,4.5,28.3,8.6,41.9c7.7,25.1,19.4,48.4,34.9,69.8c17.7,24.4,39.1,44.9,64.2,61.5c29.6,19.5,62.1,31.7,97,37.3
		c6.1,1,7,0.3,7-5.9c0-49.8,0-99.6,0-149.5c0-6.5,0-6.5-6.8-6.5c-32.7,0-65.3,0.1-98,0.1c-15.6,0-30.3-3.3-44-11
		c-20.9-11.9-33.6-29.9-38.9-53.1c-4.3-19-1.1-37.2,8.5-53.9c16.1-28,40.8-41.4,73-41.2c6.1,0,12.2,1.3,18.4,1.4
		c27.2,0.2,54.3,0,81.5,0.2c5.2,0,6.4-1.7,6.4-6.7C898.8,390.5,898.9,365.3,898.9,340.1z M101.1,340.8c0,25.2,0.1,50.3-0.1,75.5
		c0,4.7,1.5,6,6,6c23.7-0.2,47.3-0.1,71-0.1c3.3,0,6.7,0.1,10-0.5c14.6-3,29-0.6,41.9,5.5c30.4,14.4,47.4,38.2,48,73
		c0.3,16.4-4.4,31-13.3,44c-16.4,24.1-40.2,35.3-68.9,35.7c-29.5,0.4-59,0.1-88.5-0.1c-4.8,0-6.3,1.5-6.3,6.3
		c0.1,49.3,0.1,98.7,0.1,148c0,6,1.3,7.2,7.2,5.8c18.1-4.4,35.9-9.7,52.9-17.6c34.8-16.1,64.2-39,88.3-68.8
		c21.1-26.1,36.5-55.3,45-87.8c3.9-14.9,7.2-30.2,8.2-45.5c1.1-17,0.2-34.3-1.6-51.3c-1.5-14.1-4.4-28.3-8.6-41.9
		c-7.7-25.1-19.4-48.4-34.9-69.8c-18.1-25-40.1-45.8-65.9-62.6c-25.4-16.5-53.2-27.3-82.6-34.1c-6.4-1.5-7.9-0.4-7.9,5.9
		C101.1,291.1,101.1,315.9,101.1,340.8z M493,499.9c0-26,0-51.9,0-77.9c0-5.9-1-6.7-6.8-5.7c-24.1,4-43.4,16.1-57,36
		c-17.5,25.7-19.9,53.9-7.4,82.2c12.3,27.7,34.6,44,64.6,49.3c5.5,1,6.5,0.1,6.5-5.5C493.1,552.2,493,526,493,499.9z M505,500.1
		c0,26,0,51.9,0,77.9c0,5.9,1,6.7,6.8,5.7c24.1-4,43.4-16.1,57-36c17.5-25.7,19.9-53.9,7.4-82.2c-12.3-27.7-34.6-44-64.6-49.3
		c-5.5-1-6.5-0.1-6.5,5.5C504.9,447.8,505,474,505,500.1z M204.8,500c0,20.8,0,41.7,0,62.5c0,3.4,0.4,6.3,4.8,5.3
		c11.1-2.6,21.8-6.1,30.8-13.4c18.4-14.9,27.7-34,26.7-57.9c-0.6-14.4-5.5-27.3-14.3-38.6c-10.4-13.4-24.2-21.4-40.8-25.2
		c-6-1.4-7.2-0.8-7.2,5.3C204.8,458.7,204.8,479.3,204.8,500z M783.2,500.4c0-21,0-42,0-63c0-3.5-0.6-6.2-5-5.2
		c-10.9,2.6-21.5,6-30.4,13.2c-18.5,14.8-27.9,33.8-27,57.7c0.5,14.7,5.5,27.6,14.4,39.1c10.4,13.4,24.3,21.4,40.8,25.1
		c5.9,1.4,7.1,0.8,7.1-5.4C783.2,541.4,783.2,520.9,783.2,500.4z M193.2,501c0-20.5-0.1-41,0.1-61.4c0-4.4-1.5-5.8-5.8-5.8
		c-11.3,0-20.7,4.9-29.2,11.4c-18.8,14.6-28.3,33.8-27.4,58c0.5,14.6,5.5,27.6,14.4,39c10.4,13.4,24.3,21.4,40.8,25.1
		c5.9,1.3,7.2,0.8,7.2-5.4C193.2,541.6,193.2,521.3,193.2,501z M794.8,501c0,18.8,0,37.6,0,56.4c0,11.2,0,11.4,11,8.7
		c27.5-6.8,46.8-28.7,50.8-56c3.2-21.6-2.8-41.3-18.4-57.3c-10.2-10.5-22-18.1-37.2-19c-4.8-0.3-6.4,1.4-6.3,6.2
		C794.9,460.3,794.8,480.7,794.8,501z M833.7,434.3c22.7,17.8,34.9,39.5,34.3,67.5c-0.6,28-14,49.1-37.1,65.9c2.7,0.3,4,0.5,5.3,0.5
		c19,0,38-0.1,57,0.1c4.8,0.1,5.8-1.9,5.8-6.2c-0.1-40.7-0.1-81.3,0-122c0-4.7-1.3-6.4-6.2-6.4c-17.7,0.2-35.3,0.1-53,0.1
		C838.3,433.8,836.7,434.1,833.7,434.3z M154.4,434.3c-3.1-0.2-4.4-0.4-5.8-0.4c-14,0-28,0.1-42-0.1c-4.4-0.1-5.8,1.4-5.7,5.8
		c0.1,41,0.1,81.9,0,122.9c0,4.3,1.3,5.9,5.7,5.8c15.2-0.2,30.3-0.1,45.5-0.1c1.2,0,2.4-0.3,4.9-0.7c-23.6-16.4-36.6-38-37.3-65.5
		C119.1,474.2,131.2,452,154.4,434.3z"/>
	<path class="st1" d="M296.5,759.9c-63.2,0-126.3,0-189.5,0c-3.8,0-7-0.4-5.8-5.3c0.4-1.4,2.4-3.1,3.9-3.5c9.6-2.6,19.4-4.4,29-7.4
		c26.6-8.2,51.2-20.4,73.8-36.8c17.1-12.3,32.5-26.5,46.1-42.6c13.7-16.2,25.2-33.9,34.5-53c10.4-21.2,17.9-43.4,21.6-66.6
		c2.3-14.7,2.6-29.7,3.5-44.6c1.1-18.1-1.3-35.9-5-53.5c-5.4-25.7-14.7-50-27.7-72.9c-11.3-20-25.1-38.2-41.3-54.3
		c-20.4-20.3-43.6-37-69.7-49.5c-19.8-9.4-40.3-16.4-61.8-20.5c-1.3-0.2-2.9-0.3-3.8-1.1c-1.3-1.1-2.2-2.7-3.2-4.1
		c1.2-0.8,2.4-1.9,3.7-2.3c1.4-0.4,3-0.1,4.5-0.1c125.1,0,250.3,0,375.4,0c1,0,2,0.1,3,0c3.8-0.4,5.8,1,5.3,5c-0.1,0.8,0,1.7,0,2.5
		c0,49.3,0,98.6,0,148c0,7.2-0.1,7.2-6.9,8.3c-39.8,6.1-66.1,29.2-78.2,66.7c-10.4,32.4-3.5,62.7,18.8,89.1
		c13.9,16.5,31.5,26.9,52.4,31.8c3.1,0.7,6.2,1,9.4,1.3c3.5,0.4,4.8,2,4.7,5.6c-0.3,5.3-0.1,10.7-0.1,16c0,45.7,0,91.3,0,137
		c0,6.6,0,6.7-6.6,6.7C423.1,759.9,359.8,759.9,296.5,759.9z"/>
	<path class="st1" d="M702.2,759.9c-63.2,0-126.3,0-189.5,0c-7.8,0-7.8,0-7.8-7.5c0-50,0-100,0-150c0-7.2,0.1-7.2,6.9-8.3
		c39.8-6.1,66.3-29.1,78.2-66.7c10.3-32.2,3.7-62.7-18.7-89c-12-14.1-26.6-24-44.2-29.6c-5.5-1.8-11.3-2.4-17.1-3.4
		c-3.7-0.6-5.3-2.1-5.3-6.2c0.1-50.5,0.2-101,0-151.5c0-5.9,2.9-5.8,7.1-5.8c107.3,0.1,214.6,0,321.9,0c19.3,0,38.7,0,58,0
		c1.5,0,3.1-0.2,4.5,0.2c0.9,0.2,2.2,1.2,2.2,2c0,0.8-1,2-1.9,2.4c-1.5,0.7-3.2,1.1-4.8,1.2c-17.7,1.8-34.6,6.7-51.1,12.8
		c-31.5,11.5-59.5,28.8-84.2,51.5c-32.5,29.9-55.8,65.8-69.8,107.7c-9.5,28.4-13.8,57.5-12.9,87.4c1.2,41.2,11.7,80.1,31.7,116.3
		c15.6,28.3,36,52.8,60.9,73.4c27.1,22.4,57.7,38.8,91.6,48.4c11,3.1,22.4,4.7,33.6,7c1.6,0.3,3.5,0.4,4.8,1.3
		c1.1,0.7,2.3,2.5,2.2,3.6c-0.1,1-1.8,2.4-3,2.8c-1.5,0.5-3.3,0.2-5,0.2C827.8,759.9,765,759.9,702.2,759.9z"/>
	<path class="st1" d="M898.9,340.1c0,25.2-0.1,50.3,0.1,75.5c0,4.9-1.2,6.7-6.4,6.7c-27.2-0.2-54.3,0-81.5-0.2
		c-6.1,0-12.2-1.3-18.4-1.4c-32.1-0.2-56.9,13.1-73,41.2c-9.6,16.7-12.8,34.9-8.5,53.9c5.3,23.2,18,41.2,38.9,53.1
		c13.6,7.7,28.4,11,44,11c32.7,0,65.3-0.1,98-0.1c6.8,0,6.8,0,6.8,6.5c0,49.8,0,99.6,0,149.5c0,6.2-1,6.9-7,5.9
		c-35-5.6-67.4-17.8-97-37.3c-25.2-16.6-46.5-37.1-64.2-61.5c-15.5-21.3-27.3-44.6-34.9-69.8c-4.2-13.6-7.1-27.8-8.6-41.9
		c-1.8-17-2.8-34.3-1.6-51.3c1-15.6,4.5-31.2,8.4-46.5c8.1-31.5,23.2-59.8,43.3-85.3c18.7-23.6,41-43.1,67-58.5
		c22.1-13.1,45.5-22.6,70.6-28.1c5.8-1.3,11.7-2.5,17.6-3.5c5.6-1,6.5-0.2,6.5,5.4C899,289.2,898.9,314.7,898.9,340.1z"/>
	<path class="st1" d="M101.1,340.8c0-24.8,0-49.7,0-74.5c0-6.4,1.5-7.4,7.9-5.9c29.4,6.9,57.2,17.6,82.6,34.1
		c25.8,16.8,47.8,37.7,65.9,62.6c15.5,21.4,27.2,44.7,34.9,69.8c4.2,13.6,7.1,27.8,8.6,41.9c1.8,17,2.7,34.3,1.6,51.3
		c-1,15.3-4.3,30.6-8.2,45.5c-8.5,32.5-23.9,61.7-45,87.8c-24.1,29.7-53.5,52.7-88.3,68.8c-17,7.9-34.8,13.2-52.9,17.6
		c-5.9,1.4-7.1,0.2-7.2-5.8c0-49.3,0.1-98.7-0.1-148c0-4.8,1.5-6.3,6.3-6.3c29.5,0.2,59,0.5,88.5,0.1c28.7-0.4,52.5-11.6,68.9-35.7
		c8.9-13.1,13.5-27.7,13.3-44c-0.6-34.7-17.6-58.6-48-73c-12.9-6.1-27.2-8.6-41.9-5.5c-3.2,0.7-6.6,0.5-10,0.5
		c-23.7,0-47.3-0.1-71,0.1c-4.5,0-6.1-1.3-6-6C101.2,391.1,101.1,365.9,101.1,340.8z"/>
	<path class="st1" d="M493,499.9c0,26.1,0,52.3,0,78.4c0,5.5-1,6.5-6.5,5.5c-30-5.3-52.3-21.7-64.6-49.3
		c-12.5-28.2-10.1-56.5,7.4-82.2c13.6-19.9,32.9-32,57-36c5.7-1,6.8-0.1,6.8,5.7C493.1,447.9,493,473.9,493,499.9z"/>
	<path class="st1" d="M505,500.1c0-26.1,0-52.3,0-78.4c0-5.5,1-6.4,6.5-5.5c30,5.3,52.3,21.7,64.6,49.3
		c12.6,28.2,10.1,56.5-7.4,82.2c-13.6,19.9-32.9,32-57,36c-5.7,1-6.8,0.1-6.8-5.7C504.9,552,505,526.1,505,500.1z"/>
	<path class="st1" d="M204.8,500c0-20.7,0-41.3,0-62c0-6.1,1.2-6.6,7.2-5.3c16.5,3.7,30.3,11.8,40.8,25.2
		c8.8,11.3,13.7,24.1,14.3,38.6c1,23.9-8.3,43-26.7,57.9c-9,7.3-19.7,10.9-30.8,13.4c-4.4,1-4.8-1.9-4.8-5.3
		C204.9,541.7,204.8,520.8,204.8,500z"/>
	<path class="st1" d="M783.2,500.4c0,20.5,0,41,0,61.5c0,6.2-1.2,6.8-7.1,5.4c-16.5-3.8-30.4-11.7-40.8-25.1
		c-8.9-11.4-13.9-24.4-14.4-39.1c-0.9-23.9,8.5-42.9,27-57.7c8.9-7.1,19.5-10.6,30.4-13.2c4.3-1,5,1.7,5,5.2
		C783.1,458.4,783.2,479.4,783.2,500.4z"/>
	<path class="st1" d="M193.2,501c0,20.3,0,40.6,0,60.9c0,6.2-1.2,6.7-7.2,5.4c-16.5-3.7-30.3-11.7-40.8-25.1
		c-8.9-11.4-13.9-24.4-14.4-39c-0.9-24.1,8.6-43.4,27.4-58c8.4-6.5,17.9-11.4,29.2-11.4c4.3,0,5.9,1.4,5.8,5.8
		C193.1,460,193.2,480.5,193.2,501z"/>
	<path class="st1" d="M794.8,501c0-20.3,0.1-40.6-0.1-60.9c0-4.8,1.5-6.5,6.3-6.2c15.3,0.9,27,8.5,37.2,19
		c15.6,16,21.5,35.7,18.4,57.3c-4,27.4-23.3,49.3-50.8,56c-11,2.7-11,2.5-11-8.7C794.8,538.6,794.8,519.8,794.8,501z"/>
	<path class="st1" d="M833.7,434.3c3-0.2,4.6-0.4,6.1-0.4c17.7,0,35.3,0.1,53-0.1c4.9-0.1,6.2,1.7,6.2,6.4c-0.2,40.7-0.1,81.3,0,122
		c0,4.3-1,6.3-5.8,6.2c-19-0.2-38-0.1-57-0.1c-1.3,0-2.5-0.2-5.3-0.5c23.1-16.8,36.5-37.9,37.1-65.9
		C868.6,473.8,856.4,452.1,833.7,434.3z"/>
	<path class="st1" d="M154.4,434.3c-23.3,17.7-35.4,40-34.7,67.6c0.7,27.5,13.7,49.1,37.3,65.5c-2.5,0.4-3.7,0.7-4.9,0.7
		c-15.2,0-30.3-0.1-45.5,0.1c-4.4,0.1-5.7-1.5-5.7-5.8c0.1-41,0.1-81.9,0-122.9c0-4.4,1.4-5.8,5.7-5.8c14,0.2,28,0.1,42,0.1
		C150,433.8,151.3,434,154.4,434.3z"/>
</g>
</svg>
